<svg width="6" height="8" viewBox="0 0 6 8" fill="none"
   xmlns="http://www.w3.org/2000/svg">
   <path d="M2.78971 0.535889C2.08922 0.536821 1.4177 0.815499 0.922386 1.31081C0.427071 1.80613 0.148393 2.47765 0.147461 3.17813C0.147461 5.07504 2.60915 7.45086 2.71374 7.55105C2.73408 7.57082 2.76134 7.58188 2.78971 7.58188C2.81807 7.58188 2.84533 7.57082 2.86567 7.55105C2.97026 7.45086 5.43195 5.07504 5.43195 3.17813C5.43102 2.47765 5.15234 1.80613 4.65703 1.31081C4.16171 0.815499 3.49019 0.536821 2.78971 0.535889ZM2.78971 4.38916C2.55019 4.38916 2.31605 4.31814 2.11689 4.18507C1.91774 4.052 1.76252 3.86286 1.67086 3.64157C1.5792 3.42029 1.55522 3.17679 1.60195 2.94187C1.64867 2.70696 1.76401 2.49117 1.93338 2.32181C2.10274 2.15244 2.31853 2.0371 2.55345 1.99037C2.78836 1.94365 3.03186 1.96763 3.25315 2.05929C3.47443 2.15095 3.66357 2.30617 3.79664 2.50532C3.92971 2.70447 4.00073 2.93861 4.00073 3.17813C4.00053 3.49926 3.87287 3.80717 3.64581 4.03423C3.41874 4.2613 3.11083 4.38896 2.78971 4.38916Z" fill="#2853AF"/>
</svg>
