<svg width="41" height="41" viewBox="0 0 41 41" fill="none" xmlns="http://www.w3.org/2000/svg">
<path d="M11.5 1.25H27.5C27.5911 1.25 27.6793 1.27728 27.7539 1.32715L27.8232 1.38379L38.6162 12.1768C38.7019 12.2625 38.75 12.3788 38.75 12.5V36.5C38.75 38.2949 37.2949 39.75 35.5 39.75H11.5C9.70507 39.75 8.25 38.2949 8.25 36.5V4.5C8.25 2.70507 9.70508 1.25 11.5 1.25Z" fill="white" stroke="#D0D5DD" stroke-width="1.5"/>
<path d="M27.5 1V8.5C27.5 10.7091 29.2909 12.5 31.5 12.5H39" stroke="#D0D5DD" stroke-width="1.5"/>
<rect x="1.5" y="18.5" width="26" height="16" rx="2" fill="#E81A1A"/>
<path d="M5.3323 30.5V23.2273H8.20162C8.75323 23.2273 9.22316 23.3326 9.61142 23.5433C9.99967 23.7517 10.2956 24.0417 10.4992 24.4134C10.7052 24.7827 10.8082 25.2088 10.8082 25.6918C10.8082 26.1747 10.704 26.6009 10.4957 26.9702C10.2873 27.3395 9.98547 27.6271 9.59011 27.8331C9.19712 28.0391 8.72127 28.142 8.16255 28.142H6.33372V26.9098H7.91397C8.2099 26.9098 8.45375 26.8589 8.64551 26.7571C8.83964 26.6529 8.98405 26.5097 9.07875 26.3274C9.17581 26.1428 9.22434 25.9309 9.22434 25.6918C9.22434 25.4503 9.17581 25.2396 9.07875 25.0597C8.98405 24.8774 8.83964 24.7365 8.64551 24.6371C8.45138 24.5353 8.20517 24.4844 7.90687 24.4844H6.86994V30.5H5.3323ZM14.385 30.5H11.8069V23.2273H14.4063C15.1379 23.2273 15.7676 23.3729 16.2955 23.6641C16.8235 23.9529 17.2295 24.3684 17.5136 24.9105C17.8 25.4527 17.9433 26.1013 17.9433 26.8565C17.9433 27.6141 17.8 28.2652 17.5136 28.8097C17.2295 29.3542 16.8211 29.772 16.2884 30.0632C15.7581 30.3544 15.1237 30.5 14.385 30.5ZM13.3445 29.1825H14.3211C14.7757 29.1825 15.158 29.102 15.4681 28.9411C15.7806 28.7777 16.015 28.5256 16.1713 28.1847C16.3299 27.8414 16.4092 27.3987 16.4092 26.8565C16.4092 26.3191 16.3299 25.88 16.1713 25.5391C16.015 25.1982 15.7818 24.9472 15.4717 24.7862C15.1615 24.6252 14.7792 24.5447 14.3247 24.5447H13.3445V29.1825ZM19.0823 30.5V23.2273H23.8976V24.495H20.6199V26.228H23.578V27.4957H20.6199V30.5H19.0823Z" fill="white"/>
</svg>
